<svg xmlns="http://www.w3.org/2000/svg" viewBox="0 0 1200 800" role="img" aria-labelledby="title desc">
  <title id="title">Composants front</title>
  <desc id="desc">Grille abstraite de composants de site vitrine.</desc>
  <rect width="1200" height="800" fill="#fff8f4"/>
  <rect x="110" y="110" width="980" height="170" rx="20" fill="#d96b4a"/>
  <rect x="170" y="165" width="360" height="28" rx="14" fill="#ffffff" opacity=".95"/>
  <rect x="170" y="215" width="520" height="16" rx="8" fill="#ffffff" opacity=".7"/>
  <rect x="110" y="340" width="290" height="260" rx="14" fill="#ffffff" stroke="#ead1c6"/>
  <rect x="455" y="340" width="290" height="260" rx="14" fill="#ffffff" stroke="#ead1c6"/>
  <rect x="800" y="340" width="290" height="260" rx="14" fill="#ffffff" stroke="#ead1c6"/>
  <circle cx="170" cy="405" r="28" fill="#f4d8cf"/>
  <circle cx="515" cy="405" r="28" fill="#f4d8cf"/>
  <circle cx="860" cy="405" r="28" fill="#f4d8cf"/>
  <rect x="165" y="470" width="175" height="18" rx="9" fill="#211713"/>
  <rect x="510" y="470" width="175" height="18" rx="9" fill="#211713"/>
  <rect x="855" y="470" width="175" height="18" rx="9" fill="#211713"/>
  <rect x="165" y="515" width="150" height="12" rx="6" fill="#755f58" opacity=".7"/>
  <rect x="510" y="515" width="150" height="12" rx="6" fill="#755f58" opacity=".7"/>
  <rect x="855" y="515" width="150" height="12" rx="6" fill="#755f58" opacity=".7"/>
  <rect x="250" y="660" width="700" height="54" rx="27" fill="#211713"/>
</svg>
